<?xml version="1.0" encoding="utf-8"?>
<!-- Generator: Adobe Illustrator 16.0.3, SVG Export Plug-In . SVG Version: 6.00 Build 0)  -->
<!DOCTYPE svg PUBLIC "-//W3C//DTD SVG 1.1//EN" "http://www.w3.org/Graphics/SVG/1.1/DTD/svg11.dtd">
<svg version="1.1"
	 id="Layer_1" image-rendering="optimizeQuality" text-rendering="geometricPrecision" shape-rendering="geometricPrecision"
	 xmlns="http://www.w3.org/2000/svg" xmlns:xlink="http://www.w3.org/1999/xlink" x="0px" y="0px" width="792px" height="612px"
	 viewBox="0 0 792 612" enable-background="new 0 0 792 612" xml:space="preserve">
<g>
	<g id="XMLID_1_">
		<g>
			<path fill="#4267B2" d="M330.26,305.91V594.56h94.2V305.91c0-4.78,3.86-8.63,8.63-8.63h85.57l15.6-94.2H432.91
				c-4.78,0-8.63-3.85-8.63-8.63v-55.82c0-7.34,3.12-14.32,8.08-19.28c4.949-4.96,11.75-8.08,19.279-8.08H452l0.19,0.19h83.729
				v-94.2h-84.28c-33.42,0-63.899,13.59-85.75,35.62c-22.04,22.04-35.63,52.33-35.63,85.75v55.82c0,4.78-3.85,8.63-8.63,8.63H255.9
				v94.2h65.73C326.41,297.28,330.26,301.13,330.26,305.91z M553.54,8.45V119.9c0,4.78-3.85,8.63-8.63,8.63l-0.18,0.19h-93.28
				c-2.57,0-4.95,1.28-6.61,2.93c-1.83,1.84-2.939,4.23-2.939,6.98v47.01h102.83c0.55,0,0.92,0,1.47,0.18
				c4.77,0.74,7.899,5.33,7.16,9.92L534.82,306.64c-0.37,4.41-4.23,7.71-8.63,7.71H441.9V603c0,4.78-3.851,8.63-8.631,8.63H321.82
				c-4.78,0-8.63-3.85-8.63-8.63V314.35h-65.74c-4.77,0-8.63-3.85-8.63-8.629V194.27c0-4.78,3.86-8.63,8.63-8.63h65.74v-47.01
				c0-38.19,15.61-72.89,40.76-98.05C379.11,15.42,413.81-0.18,452-0.18h92.91C549.69-0.18,553.54,3.67,553.54,8.45z"/>
			<path fill="#FFFFFF" d="M432.91,203.08h101.35l-15.6,94.2h-85.57c-4.77,0-8.63,3.85-8.63,8.63V594.56h-94.2V305.91
				c0-4.78-3.85-8.63-8.63-8.63H255.9v-94.2h65.73c4.78,0,8.63-3.85,8.63-8.63v-55.82c0-33.42,13.59-63.71,35.63-85.75
				c21.85-22.03,52.33-35.62,85.75-35.62h84.28v94.2H452.19l-0.19-0.19h-0.36c-7.529,0-14.33,3.12-19.279,8.08
				c-4.96,4.96-8.08,11.94-8.08,19.28v55.82C424.28,199.23,428.13,203.08,432.91,203.08z"/>
		</g>
		<g>
		</g>
	</g>
</g>
</svg>
