<?xml version="1.0" encoding="utf-8"?>
<!-- Generator: Adobe Illustrator 16.0.3, SVG Export Plug-In . SVG Version: 6.00 Build 0)  -->
<!DOCTYPE svg PUBLIC "-//W3C//DTD SVG 1.1//EN" "http://www.w3.org/Graphics/SVG/1.1/DTD/svg11.dtd">
<svg version="1.1" id="Layer_1" xmlns="http://www.w3.org/2000/svg" xmlns:xlink="http://www.w3.org/1999/xlink" x="0px" y="0px"
	 width="792px" height="612px" viewBox="0 0 792 612" enable-background="new 0 0 792 612" xml:space="preserve">
<title>instagram-logo-black-and-white</title>
<g id="XMLID_1_">
	<g>
		<path fill="#FFFFFF" d="M700.36,179.75c1.439,32.62,1.84,43.03,1.84,126.15c0,83.12-0.4,93.53-1.84,126.16
			c-0.57,25.37-5.38,50.471-14.25,74.25c-15.96,41.15-48.5,73.69-89.65,89.65c-23.79,8.9-48.91,13.69-74.3,14.2
			C489.48,611.65,479.12,612,396,612s-93.53-0.35-126.16-1.84c-25.39-0.51-50.51-5.3-74.3-14.2c-20.42-7.7-38.92-19.77-54.19-35.36
			c-15.55-15.279-27.59-33.779-35.26-54.189c-8.92-23.771-13.73-48.87-14.25-74.25C90.35,399.48,90,389.12,90,306
			s0.4-93.53,1.84-126.16c0.48-25.39,5.28-50.52,14.2-74.3c7.72-20.41,19.79-38.9,35.36-54.19c15.26-15.59,33.76-27.62,54.19-35.26
			c23.77-8.92,48.87-13.73,74.25-14.25C302.46,0.35,312.93,0,396.01,0C479.07,0,489.44,0.35,522.11,1.84
			c25.449,0.46,50.649,5.25,74.5,14.15c20.439,7.62,38.939,19.66,54.189,35.26c15.57,15.28,27.62,33.77,35.311,54.19
			C694.98,129.24,699.79,154.35,700.36,179.75z M646.87,305.95c0-81.68-0.3-91.39-1.8-123.62c-0.221-19.4-3.771-38.62-10.511-56.82
			c-4.93-13.28-12.75-25.29-22.909-35.16c-9.851-10.18-21.87-18.01-35.16-22.91c-18.2-6.74-37.42-10.29-56.82-10.51
			c-32.28-1.5-41.939-1.8-123.62-1.8h-27.49v-0.05c-57.03,0.05-67.94,0.45-96.18,1.7c-19.4,0.26-38.62,3.83-56.82,10.56
			c-13.3,4.92-25.33,12.74-35.21,22.91c-10.16,9.86-17.97,21.87-22.86,35.16c-6.78,18.19-10.36,37.42-10.56,56.83
			c-1.45,32.27-1.75,41.88-1.75,123.61s0.3,91.39,1.75,123.669c0.23,19.4,3.81,38.631,10.56,56.82c4.89,13.29,12.7,25.3,22.86,35.16
			c9.87,10.17,21.91,17.98,35.21,22.87c18.19,6.75,37.42,10.32,56.82,10.55c32.28,1.5,41.99,1.8,123.67,1.8
			c81.681,0,91.391-0.3,123.62-1.8c19.41-0.2,38.63-3.77,56.82-10.55c26.68-10.29,47.77-31.36,58.069-58.03
			c6.74-18.18,10.301-37.39,10.511-56.77C646.57,397.29,646.87,387.63,646.87,305.95z"/>
		<path fill="#FFFFFF" d="M596.12,142.64c0,0.02,0,0.03,0,0.05c0,20.3-16.46,36.76-36.76,36.76c-20.301,0-36.761-16.46-36.761-36.76
			c0-20.3,16.46-36.76,36.761-36.76c0.02,0,0.029,0,0.05,0C579.68,105.93,596.12,122.37,596.12,142.64z"/>
		<path fill="#FFFFFF" d="M553.18,306c0,86.78-70.35,157.13-157.13,157.13c-86.78,0-157.13-70.35-157.13-157.13
			c0-86.78,70.35-157.13,157.13-157.13c43.391,0.01,82.66,17.6,111.101,46.03C535.58,223.34,553.17,262.62,553.18,306z M396.35,408
			c56.33-0.08,101.93-45.82,101.85-102.15c-0.08-56.33-45.82-101.93-102.15-101.85v0.2c-56.2,0.08-101.74,45.6-101.85,101.8
			c0,0.05,0,0.1,0,0.15C294.28,362.48,340.02,408.08,396.35,408z"/>
	</g>
	<g>
	</g>
</g>
</svg>
