<?xml version="1.0" encoding="utf-8"?>
<!-- Generator: Adobe Illustrator 16.0.3, SVG Export Plug-In . SVG Version: 6.00 Build 0)  -->
<!DOCTYPE svg PUBLIC "-//W3C//DTD SVG 1.1//EN" "http://www.w3.org/Graphics/SVG/1.1/DTD/svg11.dtd">
<svg version="1.1" id="Layer_1" xmlns="http://www.w3.org/2000/svg" xmlns:xlink="http://www.w3.org/1999/xlink" x="0px" y="0px"
	 width="122.875px" height="122.648px" viewBox="0 0 122.875 122.648" enable-background="new 0 0 122.875 122.648"
	 xml:space="preserve">
<g>
	<path fill="#FFFFFF" d="M108.993,47.079c7.683-0.059,13.897,6.12,13.882,13.805c-0.018,7.684-6.26,13.959-13.941,14.02
		L75.24,75.138l-0.235,33.729c-0.063,7.619-6.338,13.789-14.014,13.78c-7.678-0.01-13.848-6.197-13.785-13.818l0.233-33.497
		l-33.558,0.235C6.2,75.628-0.016,69.448,0,61.764c0.018-7.684,6.261-13.959,13.943-14.019l33.692-0.236l0.236-33.729
		C47.935,6.161,54.209-0.009,61.885,0c7.678,0.009,13.848,6.197,13.784,13.818l-0.233,33.497L108.993,47.079L108.993,47.079z"/>
</g>
</svg>
