<?xml version="1.0" encoding="utf-8"?>
<!-- Generator: Adobe Illustrator 16.0.3, SVG Export Plug-In . SVG Version: 6.00 Build 0)  -->
<!DOCTYPE svg PUBLIC "-//W3C//DTD SVG 1.1//EN" "http://www.w3.org/Graphics/SVG/1.1/DTD/svg11.dtd">
<svg version="1.1" id="Layer_1" xmlns="http://www.w3.org/2000/svg" xmlns:xlink="http://www.w3.org/1999/xlink" x="0px" y="0px"
	 width="100px" height="100px" viewBox="0 0 100 100" enable-background="new 0 0 100 100" xml:space="preserve">
<g>
	<path fill="#FFFFFF" d="M92.125,57.425c0.162-0.31,0.316-0.608,0.436-0.91c0.127-0.299,0.25-0.583,0.367-0.855
		c0.094-0.282,0.184-0.549,0.271-0.805c0.188-0.503,0.284-0.973,0.389-1.376c0.113-0.403,0.172-0.752,0.216-1.036
		c0.097-0.565,0.147-0.867,0.147-0.867s-0.055,0.3-0.158,0.866c-0.048,0.282-0.11,0.632-0.228,1.031
		c-0.109,0.401-0.212,0.869-0.405,1.369c-0.316,1.022-0.871,2.213-1.666,3.468c-0.804,1.244-1.896,2.559-3.385,3.602
		c-0.187,0.129-0.374,0.259-0.563,0.39c-0.202,0.111-0.406,0.225-0.611,0.337c-0.4,0.249-0.858,0.395-1.299,0.59
		c-0.227,0.084-0.465,0.137-0.699,0.206c-0.233,0.071-0.471,0.137-0.718,0.162c-0.244,0.037-0.49,0.076-0.738,0.113
		c-0.249,0.006-0.501,0.013-0.753,0.02c-0.253,0.021-0.507-0.014-0.76-0.042c-0.245-0.035-0.529-0.032-0.744-0.099
		c-0.263-0.062-0.527-0.124-0.794-0.188c-0.26-0.068-0.48-0.179-0.723-0.264c-0.945-0.394-1.887-0.958-2.665-1.716
		c-1.596-1.479-2.724-3.526-3.341-5.734c-0.632-2.212-0.747-4.601-0.441-6.923c0.106-0.528,0.177-1.224,0.329-1.748l0.21-0.832
		c0.08-0.276,0.183-0.554,0.271-0.83c0.165-0.562,0.431-1.081,0.648-1.618l0.394-0.772l0.195-0.386l0.228-0.365
		c0.574-1,1.312-1.879,2.097-2.676c0.777-0.814,1.7-1.444,2.652-1.958c1.925-1.013,4.131-1.266,6.108-0.703
		c0.236,0.072,0.471,0.144,0.704,0.215c0.229,0.102,0.455,0.204,0.681,0.305c0.23,0.091,0.442,0.217,0.649,0.348
		s0.423,0.245,0.618,0.385c0.372,0.306,0.775,0.568,1.094,0.914c0.168,0.164,0.335,0.326,0.5,0.488
		c0.147,0.177,0.293,0.352,0.438,0.525c1.156,1.402,1.859,2.959,2.303,4.373c0.432,1.42,0.649,2.716,0.681,3.786
		c0.054,0.533,0.026,1.013,0.025,1.429c0.006,0.417-0.026,0.769-0.056,1.055c-0.052,0.572-0.079,0.878-0.079,0.878
		s0.031-0.306,0.09-0.877c0.033-0.286,0.07-0.638,0.068-1.056c0.007-0.416,0.039-0.896-0.008-1.432
		c-0.015-0.268-0.03-0.549-0.046-0.847c-0.04-0.294-0.082-0.601-0.125-0.921c-0.034-0.324-0.103-0.652-0.177-0.995
		c-0.073-0.343-0.131-0.701-0.25-1.058c-0.393-1.444-1.06-3.033-2.154-4.545c-0.14-0.188-0.28-0.378-0.423-0.568
		c-0.161-0.176-0.324-0.354-0.489-0.533c-0.312-0.377-0.716-0.676-1.091-1.019c-0.196-0.16-0.415-0.297-0.625-0.448
		c-0.212-0.153-0.428-0.301-0.667-0.415c-0.234-0.125-0.471-0.249-0.708-0.375c-0.258-0.097-0.517-0.195-0.777-0.294
		c-1.044-0.375-2.223-0.533-3.422-0.462c-0.123-0.027-0.256-0.051-0.397-0.069c-0.285-0.033-0.603-0.07-0.947-0.109
		c-0.347-0.005-0.724,0.007-1.13,0.012c-0.398,0.058-0.83,0.099-1.274,0.196c-0.437,0.128-0.913,0.224-1.368,0.436
		c-0.947,0.341-1.876,0.928-2.788,1.625c-0.305,0.241-0.598,0.509-0.886,0.788l-6.377,1.796c-0.228-0.135-0.711-0.402-1.445-0.719
		c-0.532-0.211-1.158-0.514-1.982-0.65c-0.355-0.059-0.74-0.083-1.141-0.081c-0.191-0.051-0.413-0.102-0.677-0.132
		c-0.231-0.023-0.489-0.048-0.768-0.075c-0.281,0.001-0.587,0.016-0.914,0.025c-0.32,0.052-0.669,0.091-1.025,0.175
		c-0.349,0.11-0.732,0.191-1.096,0.369c-0.757,0.286-1.496,0.77-2.229,1.332c-0.28,0.225-0.548,0.477-0.809,0.74l-0.003-0.012
		l-13.173,2.165l12.629-1.565c-0.218,0.252-0.431,0.512-0.635,0.787c-0.57,0.832-1.088,1.742-1.486,2.724
		c-0.107,0.241-0.181,0.498-0.273,0.747c-0.089,0.252-0.18,0.503-0.24,0.768l-0.207,0.785l-0.145,0.779l-0.066,0.391l-0.04,0.41
		l-0.071,0.802c0.002,0.452-0.026,0.902-0.002,1.35l-14.85,0.552c-0.094-0.469-0.148-0.94-0.158-1.407l-0.001-0.345
		c-0.005-0.076,0.013-0.228,0.018-0.337c0.017-0.239,0.026-0.48,0.062-0.688c0.049-0.425,0.141-0.862,0.262-1.268
		c0.242-0.813,0.593-1.55,1.013-2.166c0.421-0.616,0.908-1.113,1.402-1.472c0.494-0.355,0.975-0.613,1.4-0.742
		c0.208-0.082,0.404-0.121,0.575-0.158c0.17-0.045,0.318-0.065,0.438-0.072c0.026-0.003,0.047-0.005,0.071-0.007
		c0.003,0.001,0.008,0.003,0.012,0.005c0.193,0.078,0.292,0.128,0.292,0.128s-0.086-0.053-0.25-0.138
		c0.159-0.016,0.247-0.023,0.247-0.023s-0.118-0.008-0.332-0.02c-0.185-0.092-0.444-0.213-0.79-0.313
		c-0.376-0.121-0.854-0.19-1.407-0.208c-0.486-0.015-1.03,0.066-1.596,0.23c-0.001,0-0.002,0-0.004,0
		c-0.664,0.073-1.617,0.156-2.754,0.295c-1.137,0.143-2.467,0.281-3.886,0.476c-1.419,0.192-2.933,0.396-4.447,0.601
		c-1.511,0.229-3.021,0.457-4.438,0.672c-1.416,0.213-2.732,0.449-3.863,0.633c-0.885,0.146-1.645,0.291-2.252,0.402
		c-0.029-0.003-0.058-0.008-0.087-0.011c-0.178,0.003-0.36-0.015-0.538,0.005c-0.359,0.029-0.717,0.107-1.059,0.234
		c-0.171,0.063-0.342,0.126-0.502,0.215c-0.165,0.078-0.326,0.167-0.476,0.271c-0.158,0.095-0.306,0.202-0.447,0.32
		c-0.149,0.109-0.283,0.233-0.415,0.362c-0.139,0.123-0.26,0.261-0.381,0.4c-0.126,0.136-0.238,0.281-0.342,0.435
		c-0.113,0.147-0.212,0.303-0.302,0.464c-0.09,0.145-0.171,0.293-0.244,0.446c-0.497-0.023-0.994-0.037-1.49-0.056
		c-0.602-0.021-1.204-0.017-1.806-0.026h0.017c-0.303-0.026-0.613,0.008-0.905,0.1c-0.296,0.086-0.563,0.245-0.799,0.433
		c-0.476,0.376-0.829,0.891-1.033,1.45c-0.108,0.274-0.177,0.575-0.221,0.87l-0.023,0.209l-0.006,0.052l-0.003,0.067l-0.004,0.108
		c-0.008,0.145-0.003,0.29,0,0.436C5.905,53.513,6,54.115,6.294,54.659c0.288,0.544,0.816,0.978,1.414,1.135
		c0.148,0.043,0.299,0.068,0.453,0.079c0.156,0.014,0.317-0.003,0.447-0.013l0.834-0.065c0.843-0.062,1.686-0.141,2.527-0.231
		c0.042,0.091,0.076,0.185,0.125,0.273c0.085,0.17,0.177,0.338,0.287,0.497c0.101,0.163,0.211,0.323,0.337,0.472
		c0.115,0.155,0.246,0.299,0.386,0.436c0.132,0.145,0.284,0.271,0.437,0.395c0.303,0.251,0.649,0.453,1.014,0.615
		c0.181,0.086,0.375,0.137,0.563,0.204c0.193,0.052,0.391,0.084,0.587,0.125l0.016,0.004l0.042,0.001
		c1.921,0.063,3.844,0.113,5.767,0.146c1.923,0.047,3.846,0.054,5.769,0.076c1.924,0.004,3.847,0.008,5.772-0.017
		c0.961-0.006,1.924-0.038,2.886-0.056c0.741-0.016,1.482-0.039,2.224-0.065c0.14,0.033,0.276,0.053,0.411,0.081
		c0.683,0.132,1.317,0.071,1.859-0.035c0.542-0.115,0.992-0.293,1.343-0.467c0.088-0.043,0.169-0.086,0.246-0.128
		c0.877,0.174,1.744,0.25,2.575,0.302c0.985,0.064,1.93,0.063,2.813,0.094c0.872,0.028,1.719,0.103,2.497,0.15
		c2.543,0.174,4.396,0.237,4.992,0.256c0.182,0.211,0.368,0.415,0.565,0.595c0.275,0.295,0.604,0.508,0.885,0.743
		c0.31,0.196,0.603,0.385,0.889,0.539c0.299,0.131,0.569,0.274,0.834,0.368c0.271,0.084,0.518,0.162,0.741,0.231
		c0.072,0.013,0.139,0.024,0.206,0.036c0.13,0.067,0.262,0.128,0.396,0.183c0.243,0.126,0.514,0.2,0.773,0.279
		c0.129,0.039,0.259,0.078,0.384,0.117c0.126,0.03,0.245,0.043,0.366,0.066c0.986,0.211,1.942,0.147,2.733-0.024
		c0.797-0.17,1.452-0.441,1.962-0.71c0.514-0.264,0.878-0.53,1.122-0.715c0.24-0.188,0.366-0.29,0.366-0.29
		s-0.139,0.084-0.398,0.244c-0.081,0.048-0.182,0.103-0.289,0.161c0.503-0.325,0.818-0.541,0.942-0.627l6.278,0.976
		c0.029,0.026,0.058,0.059,0.088,0.085c0.173,0.182,0.363,0.336,0.555,0.479c0.189,0.146,0.375,0.288,0.555,0.427
		c0.39,0.238,0.757,0.465,1.114,0.65c0.374,0.156,0.71,0.325,1.04,0.438c0.335,0.098,0.643,0.189,0.922,0.27
		c0.086,0.015,0.164,0.027,0.246,0.041c0.398,0.193,0.806,0.368,1.222,0.512c0.284,0.081,0.573,0.188,0.846,0.24
		c0.269,0.047,0.537,0.092,0.804,0.137c0.312,0.065,0.572,0.039,0.856,0.061c0.278,0.013,0.555,0.03,0.828-0.009
		c0.271-0.026,0.543-0.05,0.811-0.076c0.264-0.056,0.524-0.114,0.783-0.171c0.261-0.046,0.509-0.131,0.751-0.221
		c0.244-0.092,0.491-0.165,0.725-0.267c0.452-0.23,0.92-0.41,1.321-0.689c0.207-0.129,0.411-0.257,0.614-0.384
		c0.188-0.146,0.375-0.29,0.559-0.434c1.459-1.166,2.527-2.518,3.29-3.805C91.812,58.065,91.963,57.735,92.125,57.425z
		 M64.505,39.428c0.752,0.052,1.419,0.292,1.957,0.452c0.727,0.232,1.227,0.431,1.48,0.536l-3.368,0.949l9.127-2.078
		c-0.327,0.363-0.647,0.742-0.95,1.145c-0.027,0.04-0.054,0.082-0.081,0.121l-6.219,1.411c0,0,2.887-0.503,3.434,0.913
		c0.245,0.633,0.398,1.608,0.42,2.598c-0.02,0.07-0.043,0.14-0.059,0.212l-0.257,0.979l-0.177,0.958l-0.081,0.479l-0.051,0.515
		c-0.961,1.12-8.917,1.316-8.917,1.316l8.819,0.297c-0.011,0.457-0.024,0.913,0.021,1.365c0.002,0.034,0.008,0.068,0.009,0.104
		l-13.005,0.118c-0.001-0.03-0.008-0.059-0.009-0.088c-0.064-0.755,0.005-1.544,0.087-2.29c0.128-0.793,0.266-1.536,0.531-2.252
		c0.238-0.723,0.565-1.401,0.94-2.021c0.371-0.623,0.811-1.171,1.257-1.662c0.469-0.468,0.947-0.884,1.447-1.179
		c0.124-0.074,0.241-0.156,0.365-0.221c0.124-0.061,0.247-0.119,0.366-0.178c0.231-0.131,0.475-0.198,0.698-0.283
		c0.219-0.093,0.441-0.118,0.642-0.17c0.199-0.057,0.388-0.069,0.559-0.086c0.341-0.047,0.611-0.033,0.797-0.028
		c0.186,0.003,0.285,0.005,0.285,0.005s-0.099-0.012-0.283-0.033s-0.456-0.07-0.806-0.045c-0.175,0.003-0.369,0.002-0.576,0.043
		c-0.208,0.038-0.439,0.049-0.673,0.127c-0.235,0.068-0.493,0.121-0.744,0.236c-0.259,0.1-0.522,0.221-0.78,0.377
		c-0.538,0.285-1.056,0.694-1.569,1.162c-0.49,0.49-0.982,1.042-1.373,1.693c-0.402,0.643-0.756,1.347-1.017,2.098
		c-0.287,0.74-0.454,1.56-0.587,2.324c-0.08,0.823-0.136,1.618-0.057,2.416c0.011,0.159,0.041,0.313,0.06,0.47
		c0-0.002-0.002-0.004-0.003-0.006l-1.24,1.275c-0.152-0.979-0.199-1.985-0.14-2.987c0.071-1.246,0.322-2.519,0.698-3.665
		c0.394-1.166,0.896-2.284,1.562-3.25c0.662-0.967,1.434-1.812,2.276-2.47c0.845-0.652,1.749-1.146,2.646-1.412
		C62.868,39.467,63.735,39.376,64.505,39.428z M14.481,47.146c0.132-0.111,0.272-0.208,0.42-0.295
		c0.143-0.099,0.297-0.173,0.453-0.246c0.179-0.09,0.368-0.156,0.56-0.214c0.158-0.015,0.339-0.032,0.57-0.054
		c0.665-0.073,1.617-0.157,2.754-0.296c1.138-0.142,2.467-0.282,3.886-0.476c1.42-0.191,2.934-0.396,4.448-0.6
		c1.51-0.229,3.021-0.457,4.438-0.67c1.417-0.212,2.732-0.451,3.863-0.635c0.828-0.136,1.548-0.271,2.135-0.381
		c-0.782,0.338-1.572,0.87-2.262,1.578c0.064-0.088,0.101-0.133,0.101-0.133L14.09,47.487c0.001-0.001,0.002-0.003,0.004-0.005
		C14.215,47.361,14.342,47.246,14.481,47.146z M9.428,55.446L8.59,55.453c-0.135,0.002-0.246,0.004-0.357-0.01
		c-0.32-0.418-0.961-1.421-1.16-2.981c-0.196-1.542,0.85-2.468,1.426-2.854c0.115-0.02,0.231-0.031,0.348-0.03l0.017,0.001
		c0.6-0.039,1.202-0.064,1.802-0.114c0.486-0.041,0.974-0.079,1.46-0.125c-0.168,0.328-0.298,0.669-0.414,1.024
		c-0.051,0.181-0.116,0.369-0.154,0.543l-0.105,0.521c-0.053,0.397-0.092,0.746-0.096,1.127c-0.003,0.373,0.01,0.749,0.066,1.121
		c0.019,0.188,0.054,0.372,0.097,0.557c0.035,0.186,0.082,0.368,0.144,0.549c0.054,0.181,0.114,0.36,0.192,0.535
		c0.019,0.049,0.045,0.096,0.066,0.143C11.09,55.444,10.258,55.436,9.428,55.446z M35.965,58.42c-0.96-0.066-1.92-0.147-2.881-0.2
		c-1.921-0.12-3.842-0.214-5.763-0.306c-1.921-0.074-3.843-0.164-5.766-0.211c-1.909-0.065-3.818-0.111-5.728-0.144
		c-0.145-0.03-0.291-0.053-0.435-0.089c-0.145-0.054-0.296-0.087-0.437-0.154c-0.281-0.125-0.555-0.274-0.804-0.468
		c-0.092-0.069-0.182-0.143-0.268-0.221l21.777,0.647c0.276,0.257,0.567,0.488,0.87,0.683c0.331,0.22,0.684,0.378,1.026,0.523
		c0.095,0.029,0.187,0.058,0.28,0.088C37.212,58.518,36.588,58.464,35.965,58.42z M41.751,58.155
		c-0.356,0.147-0.806,0.291-1.334,0.366c-0.526,0.066-1.138,0.083-1.768-0.063c-0.16-0.041-0.336-0.063-0.492-0.121
		c-0.156-0.056-0.315-0.113-0.477-0.172c-0.314-0.149-0.638-0.31-0.938-0.526c-0.607-0.425-1.151-0.998-1.605-1.664
		c-0.915-1.339-1.381-3.092-1.33-4.823c-0.009-0.431,0.044-0.873,0.094-1.288l0.112-0.654l0.157-0.615
		c0.237-0.817,0.581-1.596,1.009-2.285c0.85-1.39,2.067-2.407,3.277-2.892c0.61-0.223,1.199-0.357,1.732-0.38
		c0.531-0.019,1.002,0.019,1.377,0.111c0.29,0.065,0.526,0.141,0.708,0.208c-0.111-0.007-0.238-0.008-0.387,0.008
		c-0.18,0.008-0.387,0.023-0.612,0.08c-0.46,0.078-1.002,0.278-1.569,0.607c-0.57,0.327-1.155,0.809-1.664,1.444
		c-0.514,0.63-0.965,1.404-1.277,2.286c-0.16,0.441-0.287,0.899-0.375,1.4c-0.058,0.254-0.077,0.485-0.101,0.724
		c-0.011,0.129-0.028,0.215-0.033,0.381l-0.013,0.384c-0.005,0.658,0.063,1.336,0.208,2.009l-1.773,1.449
		c0,0,0.949,2.754,3.174,3.481c1.724,0.564,2.973,0.432,3.452,0.343c0.084,0.021,0.169,0.046,0.253,0.065
		c0.113,0.027,0.225,0.045,0.338,0.07C41.844,58.112,41.806,58.132,41.751,58.155z M49.989,58.065
		c-0.772-0.112-1.601-0.257-2.512-0.335c-0.888-0.073-1.824-0.151-2.793-0.231c-0.956-0.089-1.932-0.229-2.877-0.469
		c-0.687-0.169-1.347-0.429-1.918-0.793l14.271,1.693c0.232,0.338,0.473,0.656,0.722,0.951
		C54.263,58.765,52.46,58.436,49.989,58.065z M58.144,61.032c-0.254-0.106-0.512-0.263-0.794-0.403
		c-0.271-0.167-0.545-0.366-0.833-0.572c-0.258-0.245-0.571-0.454-0.827-0.751c-0.56-0.545-1.038-1.248-1.494-2.012
		c-0.411-0.792-0.787-1.657-1.044-2.596c-0.247-0.938-0.438-1.933-0.464-2.957c-0.048-0.51,0.002-1.025,0.002-1.542l0.08-0.773
		l0.039-0.377l0.072-0.39c0.145-1.06,0.448-2.018,0.802-2.987c0.375-0.951,0.862-1.834,1.404-2.642
		c0.575-0.782,1.186-1.501,1.862-2.083c0.685-0.563,1.38-1.057,2.1-1.356c0.345-0.186,0.711-0.269,1.044-0.396
		c0.339-0.1,0.673-0.157,0.982-0.226c0.318-0.026,0.614-0.051,0.889-0.075c0.275,0.012,0.529,0.022,0.758,0.032
		c0.135,0.009,0.257,0.023,0.374,0.039c-0.414,0.021-0.841,0.07-1.283,0.168c-1.989,0.445-4.058,1.879-5.529,3.937
		c-0.741,1.025-1.342,2.201-1.764,3.457c-0.43,1.279-0.696,2.576-0.787,3.925c-0.068,1.345,0.034,2.7,0.325,3.996
		c0.286,1.297,0.784,2.527,1.439,3.617c0.65,1.093,1.504,2.022,2.455,2.709c0.228,0.159,0.457,0.309,0.69,0.447
		C58.485,61.161,58.321,61.099,58.144,61.032z M62.976,61.715c-0.456,0.011-0.942-0.028-1.442-0.128l2.186-2.029
		c0,0-0.645-0.021-1.575-0.253l2.422,0.376L62.976,61.715z M62.141,59.305c-0.424-0.106-0.904-0.258-1.413-0.471
		c-0.049-0.023-0.097-0.043-0.144-0.072c-0.178-0.104-0.386-0.188-0.573-0.337c-0.175-0.128-0.369-0.252-0.546-0.415
		c0.183,0.104,0.295,0.152,0.295,0.152l12.725,1.604c0.195,0.261,0.398,0.508,0.606,0.739L62.141,59.305z M77.131,62.902
		c-0.306-0.135-0.616-0.329-0.957-0.51c-0.325-0.208-0.655-0.457-1.001-0.713c-0.16-0.144-0.325-0.292-0.494-0.443
		c-0.173-0.146-0.342-0.304-0.494-0.486c-0.158-0.176-0.32-0.354-0.484-0.535c-0.154-0.19-0.296-0.399-0.449-0.603
		c-0.319-0.395-0.559-0.869-0.849-1.323c-0.491-0.964-0.941-2.015-1.24-3.158c-0.292-1.141-0.502-2.349-0.539-3.588
		c-0.059-0.618,0.002-1.244,0.002-1.87l0.096-0.938l0.046-0.45l0.086-0.479l0.167-0.955l0.229-0.899
		c0.065-0.3,0.17-0.597,0.271-0.892c0.106-0.293,0.188-0.595,0.311-0.878c0.46-1.15,1.03-2.229,1.681-3.214
		c0.688-0.953,1.421-1.83,2.235-2.541c0.827-0.685,1.66-1.296,2.525-1.674c0.415-0.233,0.855-0.34,1.257-0.501
		c0.41-0.129,0.814-0.206,1.19-0.296c0.383-0.039,0.745-0.084,1.08-0.111c0.111,0.002,0.216,0.005,0.32,0.007
		c-0.791,0.135-1.576,0.362-2.323,0.707c-2.223,0.988-4.129,2.756-5.493,4.875l-0.265,0.395l-0.23,0.414
		c-0.153,0.277-0.315,0.552-0.459,0.835c-0.248,0.583-0.542,1.153-0.731,1.763c-0.103,0.302-0.216,0.598-0.31,0.906l-0.25,0.945
		c-0.093,0.321-0.149,0.625-0.2,0.923l-0.168,0.936c-0.127,1.27-0.219,2.551-0.094,3.822c0.021,0.638,0.15,1.266,0.234,1.893
		c0.067,0.313,0.147,0.619,0.221,0.928l0.112,0.46l0.149,0.451c0.749,2.405,2.115,4.616,3.993,6.161
		c0.287,0.25,0.594,0.468,0.907,0.671C77.186,62.924,77.16,62.914,77.131,62.902z"/>
	<path fill="#FFFFFF" d="M84.743,38.847c-2.354-0.32-4.723,0.561-6.671,2.481c-1.477,1.456-2.574,3.381-3.191,5.549
		c-0.021,0.074-0.038,0.151-0.058,0.227c-0.067,0.254-0.136,0.507-0.19,0.768c-0.073,0.346-0.136,0.697-0.183,1.054
		c-0.697,5.121,1.385,9.818,4.844,11.679c0.738,0.396,1.538,0.665,2.387,0.779c0.242,0.032,0.489,0.048,0.74,0.052
		c0.103,0.003,0.204,0.005,0.308,0.003c0.112-0.003,0.228-0.011,0.343-0.02c0.264-0.018,0.526-0.049,0.786-0.096
		c0.019-0.003,0.037-0.006,0.056-0.009l0.01-0.004c3.943-0.744,7.341-4.765,8.053-10.004C92.82,45.093,89.577,39.504,84.743,38.847z
		 M85.696,39.601c0.54,0.37,3.022,2.23,3.926,5.71c1.017,3.914,0.029,7.735,0.029,7.735l1.384,0.157
		c-0.158,0.551-0.35,1.078-0.566,1.587L88.8,54.5c0.279-0.868,0.489-1.771,0.616-2.701c0.719-5.292-1.224-10.206-4.79-12.432
		c0.016,0.002,0.031,0.001,0.047,0.004C85.023,39.418,85.364,39.498,85.696,39.601z M87.137,49.347c0-0.001,0-0.003,0-0.003
		s-0.004,0.116-0.014,0.335c-0.013,0.219-0.042,0.539-0.106,0.941c-0.137,0.801-0.454,1.951-1.202,3.131
		c-0.371,0.592-0.846,1.173-1.436,1.713c-0.141,0.132-0.293,0.262-0.452,0.32c-0.159,0.061-0.321,0.035-0.458-0.069
		c-0.288-0.21-0.368-0.605-0.267-0.997c0.094-0.388,0.287-0.81,0.434-1.235c0.153-0.427,0.295-0.864,0.428-1.31
		c0.268-0.891,0.457-1.83,0.521-2.79c0.033-0.96-0.058-1.947-0.464-2.844c-0.092-0.236-0.21-0.426-0.321-0.625
		c-0.131-0.227-0.271-0.399-0.405-0.58c-0.14-0.188-0.276-0.373-0.393-0.563c-0.085-0.199-0.251-0.643-0.261-1.021
		c0.064-0.146,0.192-0.265,0.38-0.343c0.342-0.133,0.76-0.084,1.103,0.061c0.181,0.08,0.347,0.179,0.502,0.291
		c0.479,0.384,0.878,0.879,1.18,1.324c0.344,0.531,0.59,1.069,0.777,1.559c0.205,0.529,0.305,1.02,0.366,1.422
		c0.059,0.403,0.077,0.726,0.085,0.943c0.002,0.219,0.003,0.336,0.003,0.336s0-0.117,0-0.336c-0.004-0.219-0.02-0.54-0.074-0.946
		c-0.033-0.25-0.088-0.536-0.167-0.844l0.317,0.909l1.608-0.857c0.056,0.339,0.102,0.682,0.136,1.028
		c-0.417,0.197-1.276,0.624-1.82,1.046V49.347z M75.105,53.496c-0.129-0.638-0.208-1.298-0.238-1.977
		C74.928,52.188,75.01,52.908,75.105,53.496z M75.372,54.568c0.038,0.065,0.076,0.104,0.115,0.084
		c0.006-0.004,7.167-3.851,8.504-4.568c-0.048,0.371-0.116,0.74-0.195,1.107l-5.111,2.874l4.796-1.623
		c-0.086,0.301-0.169,0.604-0.263,0.9c-0.122,0.433-0.288,0.833-0.378,1.304c-0.041,0.23-0.05,0.485,0.021,0.722
		c0.078,0.25,0.226,0.453,0.436,0.596c0.205,0.147,0.509,0.176,0.729,0.07c0.225-0.101,0.376-0.256,0.52-0.402
		c0.567-0.575,1.028-1.205,1.37-1.819c0.696-1.232,0.981-2.387,1.113-3.189c0.046-0.304,0.072-0.561,0.087-0.762l-0.04,0.932
		l1.928-0.337c-0.021,0.423-0.053,0.846-0.111,1.271c-0.517,3.809-2.434,7.196-5.132,9.078c-0.254,0.045-0.507,0.072-0.756,0.089
		c-0.095,0.006-0.188,0.017-0.283,0.017c-0.093,0.004-0.186-0.001-0.278-0.002c-0.229-0.007-0.461-0.018-0.691-0.049
		C78.724,60.449,76.372,57.943,75.372,54.568z"/>
</g>
</svg>
