<?xml version="1.0" encoding="utf-8"?>
<!-- Generator: Adobe Illustrator 16.0.3, SVG Export Plug-In . SVG Version: 6.00 Build 0)  -->
<!DOCTYPE svg PUBLIC "-//W3C//DTD SVG 1.1//EN" "http://www.w3.org/Graphics/SVG/1.1/DTD/svg11.dtd">
<svg version="1.1"
	 id="Layer_1" image-rendering="optimizeQuality" text-rendering="geometricPrecision" shape-rendering="geometricPrecision"
	 xmlns="http://www.w3.org/2000/svg" xmlns:xlink="http://www.w3.org/1999/xlink" x="0px" y="0px" width="792px" height="612px"
	 viewBox="0 0 792 612" enable-background="new 0 0 792 612" xml:space="preserve">
<g id="XMLID_1_">
	<g>
		<path fill="#FFFFFF" d="M655.766,286.365v39.104c0,41.818-5.133,83.555-5.133,83.555s-5.035,35.606-20.533,51.219
			c-19.65,20.55-41.606,20.664-51.709,21.857c-72.145,5.166-180.597,5.362-180.597,5.362s-134.152-1.193-175.447-5.134
			c-11.525-2.19-37.323-1.521-56.957-22.069c-15.416-15.646-20.451-51.202-20.451-51.202s-5.133-41.818-5.133-83.555v-39.105
			c0-41.818,5.133-83.555,5.133-83.555s4.937-35.573,20.451-51.186c19.634-20.55,41.606-20.631,51.693-21.857
			c72.193-5.264,180.499-5.264,180.499-5.264h0.18c0,0,108.371,0,180.516,5.264c10.054,1.193,32.042,1.324,51.692,21.857
			c15.498,15.612,20.533,51.186,20.533,51.186l0.032-0.033C650.534,202.811,655.668,244.629,655.766,286.365z M344.319,372.944
			l139.383-72.258l-139.383-72.749V372.944z"/>
		<polygon fill="#FF0000" points="483.702,300.687 344.319,372.944 344.319,227.938 		"/>
	</g>
	<g>
	</g>
</g>
</svg>
